<svg xmlns="http://www.w3.org/2000/svg" viewBox="0 0 680 200" fill="none">
  <rect width="680" height="200" rx="16" fill="#0d1117"/>
  <defs>
    <pattern id="g" width="40" height="40" patternUnits="userSpaceOnUse">
      <path d="M40 0L0 0 0 40" fill="none" stroke="#161b22" stroke-width="1"/>
    </pattern>
  </defs>
  <rect width="680" height="200" fill="url(#g)"/>
  <g transform="translate(40,40)">
    <rect width="120" height="120" rx="16" fill="#1a2332" stroke="#f7931a" stroke-width="2.5"/>
    <line x1="24" y1="28" x2="24" y2="88" stroke="#484f58" stroke-width="1"/>
    <rect x="19" y="42" width="10" height="26" fill="#3fb950" rx="1"/>
    <line x1="46" y1="22" x2="46" y2="82" stroke="#484f58" stroke-width="1"/>
    <rect x="41" y="32" width="10" height="30" fill="#f85149" rx="1"/>
    <line x1="68" y1="32" x2="68" y2="92" stroke="#484f58" stroke-width="1"/>
    <rect x="63" y="48" width="10" height="22" fill="#3fb950" rx="1"/>
    <line x1="90" y1="18" x2="90" y2="78" stroke="#484f58" stroke-width="1"/>
    <rect x="85" y="28" width="10" height="30" fill="#3fb950" rx="1"/>
    <text x="60" y="108" font-family="monospace" font-size="11" fill="#f7931a" text-anchor="middle" opacity="0.7">RUNE</text>
  </g>
  <text x="195" y="68" font-family="'Segoe UI',system-ui,sans-serif" font-size="40" fill="#e6edf3" font-weight="700" letter-spacing="-1">BTC Inscription</text>
  <text x="195" y="112" font-family="'Segoe UI',system-ui,sans-serif" font-size="40" fill="#f7931a" font-weight="700" letter-spacing="-1">AutoTrader</text>
  <text x="197" y="140" font-family="'Segoe UI',system-ui,sans-serif" font-size="14" fill="#7d8590">&#x7B26;&#x6587;&#x81EA;&#x52A8;&#x4EA4;&#x6613; | Playwright | UniSat &#x94B1;&#x5305;</text>
  <g transform="translate(197,155)">
    <rect width="66" height="22" rx="11" fill="#1a2332" stroke="#f7931a" stroke-width="1"/>
    <text x="33" y="15" font-family="monospace" font-size="10" fill="#f7931a" text-anchor="middle">Python</text>
    <rect x="76" width="88" height="22" rx="11" fill="#1a2332" stroke="#3fb950" stroke-width="1"/>
    <text x="120" y="15" font-family="monospace" font-size="10" fill="#3fb950" text-anchor="middle">Playwright</text>
    <rect x="174" width="66" height="22" rx="11" fill="#1a2332" stroke="#58a6ff" stroke-width="1"/>
    <text x="207" y="15" font-family="monospace" font-size="10" fill="#58a6ff" text-anchor="middle">UniSat</text>
  </g>
</svg>