<svg xmlns="http://www.w3.org/2000/svg" viewBox="0 0 680 240" fill="none">
  <rect width="680" height="240" rx="16" fill="#0d1117"/>
  <defs>
    <pattern id="grid" width="40" height="40" patternUnits="userSpaceOnUse">
      <path d="M 40 0 L 0 0 0 40" fill="none" stroke="#161b22" stroke-width="1"/>
    </pattern>
  </defs>
  <rect width="680" height="240" fill="url(#grid)"/>
  <g transform="translate(60, 40)">
    <rect x="5" y="5" width="110" height="110" rx="14" fill="#1a2332" stroke="#f7931a" stroke-width="2.5"/>
    <line x1="25" y1="30" x2="25" y2="90" stroke="#484f58" stroke-width="1"/>
    <rect x="20" y="45" width="10" height="25" fill="#3fb950" rx="1"/>
    <line x1="45" y1="25" x2="45" y2="85" stroke="#484f58" stroke-width="1"/>
    <rect x="40" y="35" width="10" height="30" fill="#f85149" rx="1"/>
    <line x1="65" y1="35" x2="65" y2="95" stroke="#484f58" stroke-width="1"/>
    <rect x="60" y="50" width="10" height="20" fill="#3fb950" rx="1"/>
    <line x1="85" y1="20" x2="85" y2="80" stroke="#484f58" stroke-width="1"/>
    <rect x="80" y="30" width="10" height="30" fill="#3fb950" rx="1"/>
    <text x="60" y="108" font-family="monospace" font-size="11" fill="#f7931a" text-anchor="middle" opacity="0.7">RUNE</text>
  </g>
  <text x="210" y="78" font-family="'Segoe UI', system-ui, sans-serif" font-size="40" fill="#e6edf3" font-weight="700" letter-spacing="-1">BTC Inscription</text>
  <text x="210" y="128" font-family="'Segoe UI', system-ui, sans-serif" font-size="40" fill="#f7931a" font-weight="700" letter-spacing="-1">AutoTrader</text>
  <text x="212" y="160" font-family="'Segoe UI', system-ui, sans-serif" font-size="15" fill="#7d8590">符文自动交易 | Playwright | UniSat 钱包</text>
  <g transform="translate(212, 177)">
    <rect x="0" y="0" width="72" height="22" rx="11" fill="#1a2332" stroke="#f7931a" stroke-width="1"/>
    <text x="36" y="15" font-family="monospace" font-size="10" fill="#f7931a" text-anchor="middle">Python</text>
    <rect x="82" y="0" width="90" height="22" rx="11" fill="#1a2332" stroke="#3fb950" stroke-width="1"/>
    <text x="127" y="15" font-family="monospace" font-size="10" fill="#3fb950" text-anchor="middle">Playwright</text>
    <rect x="182" y="0" width="68" height="22" rx="11" fill="#1a2332" stroke="#58a6ff" stroke-width="1"/>
    <text x="216" y="15" font-family="monospace" font-size="10" fill="#58a6ff" text-anchor="middle">UniSat</text>
  </g>
</svg>
